<svg width="190" height="190" viewBox="0 0 190 190" fill="none" xmlns="http://www.w3.org/2000/svg">
<g clip-path="url(#clip0)">
<path d="M188.076 81.877C182.645 71.6693 174.862 62.959 164.908 55.9094C167.453 51.5687 168.817 46.6135 168.817 41.4783C168.817 25.722 155.997 12.9029 140.238 12.9029C125.953 12.9029 114.083 23.4398 111.99 37.1491C104.606 36.2507 96.7686 35.7909 88.5953 35.7909C65.7059 35.7909 48.0804 42.291 36.2084 55.1104C23.3626 68.9811 20.9367 86.5591 20.5823 95.2813C8.82906 97.8467 0 108.33 0 120.841V125.024C0 139.452 11.7381 151.19 26.1658 151.19H61.1028C69.3923 151.19 76.1362 157.933 76.1362 166.223V171.531C76.1362 174.605 78.6285 177.097 81.7022 177.097C84.7764 177.097 87.2683 174.604 87.2683 171.531V166.223C87.2683 151.795 75.5302 140.057 61.1024 140.057H26.1658C17.8763 140.057 11.1324 133.313 11.1324 125.024V120.84C11.1324 114.264 15.3789 108.664 21.2726 106.629C24.1675 118.906 35.2075 128.074 48.3554 128.074H101.079C101.088 128.074 101.097 128.072 101.107 128.072H106.786C109.86 128.072 112.352 125.58 112.352 122.506C112.352 119.432 109.86 116.94 106.786 116.94H101.079C97.3783 116.94 94.3677 113.929 94.3677 110.229V105.809H119.774V110.229C119.774 120.068 127.779 128.073 137.618 128.073H147.036C150.11 128.073 152.602 125.58 152.602 122.507C152.602 119.433 150.11 116.941 147.036 116.941H137.618C133.917 116.941 130.906 113.93 130.906 110.229V105.81H173.67C185.959 105.81 193.84 92.7282 188.076 81.877ZM173.669 94.6771C170.71 94.6771 98.23 94.6771 94.3673 94.6771V90.2682C94.3673 90.2437 94.3639 90.2199 94.3636 90.1954C94.3239 74.3757 81.4447 61.5173 65.6179 61.5173C62.5438 61.5173 60.0519 64.0096 60.0519 67.0834C60.0519 70.1575 62.5441 72.6494 65.6179 72.6494C75.3309 72.6494 83.233 80.5529 83.233 90.2682C83.233 90.2804 83.2348 90.2919 83.2348 90.3042V110.228C83.2348 112.602 83.7046 114.868 84.55 116.941H48.355C39.4016 116.941 32.0736 109.857 31.6758 101.001C31.923 99.2119 30.0193 78.1653 44.3854 62.6633C54.065 52.2184 68.9392 46.9222 88.5953 46.9222C97.0251 46.9222 105.052 47.4351 112.528 48.4389C113.778 53.4175 116.359 58.0135 120.032 61.6865C122.205 63.86 125.73 63.8604 127.904 61.6865C130.078 59.5127 130.078 55.9888 127.904 53.8149C125.008 50.9189 123.218 47.0896 122.863 43.0131C121.949 32.8667 129.995 24.0343 140.237 24.0343C149.858 24.0343 157.684 31.8591 157.684 41.4771C157.684 45.9644 155.983 50.2294 152.894 53.4869C150.457 56.0567 151.013 60.2259 154.041 62.0717C164.731 68.5841 172.875 77.0064 178.246 87.1016C180.068 90.5324 177.565 94.6771 173.669 94.6771Z" fill="#6200EE"/>
<path d="M156.064 80.1151C157.241 77.2747 155.893 74.0177 153.053 72.8403C150.212 71.6629 146.955 73.0111 145.778 75.8515C144.601 78.6919 145.949 81.949 148.789 83.1263C151.63 84.3037 154.887 82.9555 156.064 80.1151Z" fill="#6200EE"/>
</g>
<defs>
<clipPath id="clip0">
<rect width="190" height="190" fill="white"/>
</clipPath>
</defs>
</svg>
